<?xml version="1.0" encoding="utf-8"?>
<!-- Generator: Adobe Illustrator 27.3.1, SVG Export Plug-In . SVG Version: 6.00 Build 0)  -->
<svg version="1.1" id="Layer_1" xmlns="http://www.w3.org/2000/svg" xmlns:xlink="http://www.w3.org/1999/xlink" x="0px" y="0px"
	 viewBox="0 0 500 500" style="enable-background:new 0 0 500 500;" xml:space="preserve">
<style type="text/css">
	.st0{fill:#010101;}
</style>
<path class="st0" d="M-7.09-7.09V7.09H7.09V-7.09H-7.09z M-4.88-4.88c1.05-1.05,2.75-1.05,3.8,0l0.85,0.85l-1.1,1.1l-0.78-0.78
	c-0.44-0.44-1.16-0.44-1.6,0c-0.44,0.44-0.44,1.16,0,1.6l3.46,3.46l-1.1,1.1l-3.54-3.54C-5.93-2.14-5.93-3.84-4.88-4.88z
	 M-4.88,4.88c-1.05-1.05-1.05-2.75,0-3.8l0.86-0.86l1.1,1.1l-0.79,0.79c-0.44,0.44-0.44,1.16,0,1.6c0.44,0.44,1.16,0.44,1.6,0
	l3.49-3.48l1.1,1.1l-3.56,3.56C-2.14,5.93-3.84,5.93-4.88,4.88z M4.88,4.88c-1.05,1.05-2.75,1.05-3.8,0L0.23,4.03l1.1-1.1l0.78,0.78
	c0.44,0.44,1.16,0.44,1.6,0c0.44-0.44,0.44-1.16,0-1.6L0.25-1.35l1.1-1.1l3.54,3.54C5.93,2.14,5.93,3.84,4.88,4.88z M4.88-1.09
	L4.02-0.23l-1.1-1.1l0.79-0.79c0.44-0.44,0.44-1.16,0-1.6c-0.44-0.44-1.16-0.44-1.6,0l-3.48,3.48l-1.1-1.1l3.56-3.56
	c1.05-1.05,2.75-1.05,3.8,0C5.93-3.84,5.93-2.14,4.88-1.09z"/>
</svg>
