<?xml version="1.0" encoding="utf-8"?>
<!-- Generator: Adobe Illustrator 27.3.1, SVG Export Plug-In . SVG Version: 6.00 Build 0)  -->
<svg version="1.1" id="Layer_1" xmlns="http://www.w3.org/2000/svg" xmlns:xlink="http://www.w3.org/1999/xlink" x="0px" y="0px"
	 viewBox="0 0 500 500" style="enable-background:new 0 0 500 500;" xml:space="preserve">
<g>
	<path d="M-36.61-36.62c7.86-7.86,20.61-7.86,28.47,0l6.41,6.41l-8.23,8.23l-5.87-5.88c-3.31-3.31-8.69-3.31-12,0
		c-3.31,3.31-3.31,8.69,0,12l25.98,25.98l-8.23,8.23L-36.61-8.16C-44.47-16.02-44.47-28.76-36.61-36.62z M-8.16,36.62
		c-7.86,7.86-20.61,7.86-28.47,0s-7.86-20.61,0-28.47l6.44-6.44l8.23,8.23l-5.9,5.9c-3.31,3.31-3.31,8.69,0,12s8.69,3.31,12,0
		L10.28,1.72l8.23,8.23L-8.16,36.62z M36.62,36.62c-7.86,7.86-20.61,7.86-28.47,0l-6.41-6.41l8.23-8.23l5.87,5.87
		c3.31,3.31,8.69,3.31,12,0s3.31-8.69,0-12L1.87-10.13l8.23-8.23L36.62,8.16C44.48,16.02,44.48,28.76,36.62,36.62z M36.62-8.16
		l-6.44,6.44l-8.23-8.23l5.9-5.9c3.31-3.31,3.31-8.69,0-12s-8.69-3.31-12,0L-10.28-1.72l-8.23-8.23L8.16-36.62
		c7.86-7.86,20.61-7.86,28.47,0C44.48-28.76,44.48-16.02,36.62-8.16z"/>
</g>
</svg>
