<?xml version="1.0" encoding="utf-8"?>
<!-- Generator: Adobe Illustrator 27.3.1, SVG Export Plug-In . SVG Version: 6.00 Build 0)  -->
<svg version="1.1" id="Layer_1" xmlns="http://www.w3.org/2000/svg" xmlns:xlink="http://www.w3.org/1999/xlink" x="0px" y="0px"
	 viewBox="0 0 500 500" style="enable-background:new 0 0 500 500;" xml:space="preserve">
<style type="text/css">
	.st0{fill:#010101;}
</style>
<path class="st0" d="M-7.09-7.09V7.09H7.09V-7.09H-7.09z M5.67,1.28c0,0.03-0.03,0.07-0.06,0.07L4.25,1.61
	C4.22,1.62,4.18,1.65,4.17,1.68L3.74,2.74C3.73,2.77,3.73,2.82,3.75,2.85l0.77,1.12C4.54,4,4.54,4.04,4.52,4.07L3.5,5.08
	c-0.02,0.02-0.07,0.03-0.1,0.01L2.3,4.33c-0.03-0.02-0.08-0.02-0.11,0L1.71,4.59c-0.03,0.02-0.07,0-0.08-0.03l-1-2.43
	c-0.01-0.03,0-0.07,0.03-0.09l0.12-0.07C0.8,1.95,0.83,1.93,0.85,1.91c0.44-0.28,0.73-0.77,0.73-1.33C1.58-0.3,0.88-1.01,0-1.01
	S-1.58-0.3-1.58,0.57c0,0.56,0.29,1.05,0.73,1.33c0.02,0.02,0.05,0.05,0.08,0.06l0.12,0.07c0.03,0.02,0.04,0.06,0.03,0.09l-1,2.43
	C-1.64,4.59-1.68,4.6-1.71,4.59L-2.2,4.33c-0.03-0.02-0.08-0.02-0.11,0l-1.1,0.76c-0.03,0.02-0.07,0.02-0.1-0.01l-1.01-1.01
	C-4.54,4.04-4.54,4-4.52,3.97l0.77-1.12c0.02-0.03,0.02-0.08,0.01-0.11l-0.42-1.06c-0.01-0.03-0.05-0.07-0.08-0.07l-1.36-0.25
	c-0.03-0.01-0.06-0.04-0.06-0.07l0-1.43c0-0.03,0.03-0.07,0.06-0.07l1.39-0.26c0.03-0.01,0.07-0.04,0.08-0.07l0.43-1
	c0.02-0.03,0.01-0.08-0.01-0.11l-0.81-1.18c-0.02-0.03-0.02-0.07,0.01-0.1l1.01-1.01c0.02-0.02,0.07-0.03,0.1-0.01l1.2,0.83
	c0.03,0.02,0.08,0.02,0.11,0.01l0.97-0.4C-1.1-3.53-1.06-3.57-1.06-3.6l0.27-1.44C-0.78-5.08-0.75-5.1-0.72-5.1h1.43
	c0.03,0,0.07,0.03,0.07,0.06L1.06-3.6C1.07-3.57,1.1-3.53,1.13-3.52l0.97,0.4C2.13-3.11,2.17-3.11,2.2-3.13l1.2-0.83
	c0.03-0.02,0.07-0.02,0.1,0.01l1.01,1.01c0.02,0.02,0.03,0.07,0.01,0.1L3.71-1.66C3.69-1.63,3.69-1.58,3.71-1.55l0.43,1
	c0.01,0.03,0.05,0.06,0.08,0.07l1.39,0.26c0.03,0.01,0.06,0.04,0.06,0.07L5.67,1.28z"/>
</svg>
